<?xml version="1.0" encoding="UTF-8"?>
<!DOCTYPE svg PUBLIC "-//W3C//DTD SVG 1.1//EN" "http://www.w3.org/Graphics/SVG/1.1/DTD/svg11.dtd">
<!-- Creator: CorelDRAW 2021.5 -->
<svg xmlns="http://www.w3.org/2000/svg" xml:space="preserve" width="227.206mm" height="227.206mm" version="1.1" style="shape-rendering:geometricPrecision; text-rendering:geometricPrecision; image-rendering:optimizeQuality; fill-rule:evenodd; clip-rule:evenodd"
viewBox="0 0 22720.58 22720.58"
 xmlns:xlink="http://www.w3.org/1999/xlink"
 xmlns:xodm="http://www.corel.com/coreldraw/odm/2003">
 <defs>
  <style type="text/css">
   <![CDATA[
    .str0 {stroke:#264373;stroke-width:70.56;stroke-miterlimit:22.9256}
    .fil1 {fill:#264373}
    .fil0 {fill:#B9C8E0}
   ]]>
  </style>
 </defs>
 <g id="Layer_x0020_1">
  <metadata id="CorelCorpID_0Corel-Layer"/>
  <g id="_105553209376992">
   <rect class="fil0 str0" x="35.28" y="35.28" width="22650.02" height="22650.02" rx="1567.68" ry="1567.68"/>
   <path class="fil1" d="M3471.72 19745.36c650.1,70.35 1606.16,-98.87 2067.95,-404.14 432.54,-285.93 655.49,-1019.14 923.11,-1615.53 522.24,-1163.83 1030.48,-2312.73 1556,-3492.37 1050.43,-2357.91 2040.56,-4610.42 3098.05,-6969.4 134.27,76.7 646.88,1130.01 721.25,1270.93 238.14,451.27 472.44,885.95 715,1335.26l4251.91 7963.63 -3224.26 0.89 -1780.68 -3709.3c-100.67,35.67 -35.55,-26.77 -188.26,290.96l-517.03 1079.27c-216.77,453.11 -446.64,931.3 -675.55,1408.71 -160.89,335.54 -1308.37,2646.45 -1330.33,2836.45 762.24,60.95 4339.6,6.9 5402.13,6.9 1276.4,0 2845.31,28.82 4096.76,0.48 752.81,-17.05 657.17,-635.69 657.17,-1200.59 0,-358.45 -207.31,-603.9 -447.88,-1045.71l-3635.42 -6790.33c-675.53,-1281.94 -1411.48,-2582.79 -2077.82,-3874.6l-1820.61 -3409.73c-126.9,-238.54 -170,-396.91 -317.31,-476.27 -103.26,326.16 -309.72,722.9 -455.29,1055.21 -159.59,364.28 -307.08,681.66 -470.83,1049.77l-2800.54 6290.91c-614.42,1395.5 -1244.92,2800.84 -1871.39,4205.06l-1876.13 4193.54z"/>
  </g>
 </g>
</svg>
